<mxfile host="app.diagrams.net" modified="2021-09-05T12:04:04.636Z" agent="5.0 (Windows NT 10.0; Win64; x64) AppleWebKit/537.36 (KHTML, like Gecko) Chrome/92.0.4515.159 Safari/537.36" etag="A3WczpaXR5xq51sMcuFx" version="14.5.10" type="github">
  <diagram id="lQbhDGxogrssM2cnBjjg" name="第 1 页">
    <mxGraphModel dx="1422" dy="762" grid="1" gridSize="10" guides="1" tooltips="1" connect="1" arrows="1" fold="1" page="1" pageScale="1" pageWidth="827" pageHeight="1169" math="0" shadow="0">
      <root>
        <mxCell id="0" />
        <mxCell id="1" parent="0" />
        <mxCell id="xgXOS_-53twv-PHmrjcY-1" value="贷前/贷中/贷后风控业务" style="rounded=0;whiteSpace=wrap;html=1;verticalAlign=top;fillColor=#dae8fc;strokeColor=#6c8ebf;" vertex="1" parent="1">
          <mxGeometry x="130" y="170" width="990" height="70" as="geometry" />
        </mxCell>
        <mxCell id="xgXOS_-53twv-PHmrjcY-2" value="信用风险人工审核系统" style="rounded=0;whiteSpace=wrap;html=1;fillColor=#fff2cc;strokeColor=#d6b656;" vertex="1" parent="1">
          <mxGeometry x="180" y="200" width="140" height="30" as="geometry" />
        </mxCell>
        <mxCell id="xgXOS_-53twv-PHmrjcY-3" value="反欺诈风险人工调查系统" style="rounded=0;whiteSpace=wrap;html=1;fillColor=#fff2cc;strokeColor=#d6b656;" vertex="1" parent="1">
          <mxGeometry x="540" y="200" width="140" height="30" as="geometry" />
        </mxCell>
        <mxCell id="xgXOS_-53twv-PHmrjcY-4" value="贷后风险人工审查系统" style="rounded=0;whiteSpace=wrap;html=1;fillColor=#fff2cc;strokeColor=#d6b656;" vertex="1" parent="1">
          <mxGeometry x="870" y="200" width="140" height="30" as="geometry" />
        </mxCell>
        <mxCell id="xgXOS_-53twv-PHmrjcY-5" value="接口管理系统" style="rounded=0;whiteSpace=wrap;html=1;fillColor=#f8cecc;strokeColor=#b85450;verticalAlign=top;" vertex="1" parent="1">
          <mxGeometry x="130" y="260" width="120" height="810" as="geometry" />
        </mxCell>
        <mxCell id="xgXOS_-53twv-PHmrjcY-6" value="IP管理" style="rounded=0;whiteSpace=wrap;html=1;fillColor=#e1d5e7;strokeColor=#9673a6;" vertex="1" parent="1">
          <mxGeometry x="150" y="310" width="80" height="40" as="geometry" />
        </mxCell>
        <mxCell id="xgXOS_-53twv-PHmrjcY-7" value="接口配置" style="rounded=0;whiteSpace=wrap;html=1;fillColor=#e1d5e7;strokeColor=#9673a6;" vertex="1" parent="1">
          <mxGeometry x="150" y="380" width="80" height="40" as="geometry" />
        </mxCell>
        <mxCell id="xgXOS_-53twv-PHmrjcY-8" value="接口适配" style="rounded=0;whiteSpace=wrap;html=1;fillColor=#e1d5e7;strokeColor=#9673a6;" vertex="1" parent="1">
          <mxGeometry x="150" y="450" width="80" height="40" as="geometry" />
        </mxCell>
        <mxCell id="xgXOS_-53twv-PHmrjcY-9" value="码值管理" style="rounded=0;whiteSpace=wrap;html=1;fillColor=#e1d5e7;strokeColor=#9673a6;" vertex="1" parent="1">
          <mxGeometry x="150" y="530" width="80" height="40" as="geometry" />
        </mxCell>
        <mxCell id="xgXOS_-53twv-PHmrjcY-10" value="文档管理" style="rounded=0;whiteSpace=wrap;html=1;fillColor=#e1d5e7;strokeColor=#9673a6;" vertex="1" parent="1">
          <mxGeometry x="150" y="600" width="80" height="40" as="geometry" />
        </mxCell>
        <mxCell id="xgXOS_-53twv-PHmrjcY-11" value="自动化测试" style="rounded=0;whiteSpace=wrap;html=1;fillColor=#e1d5e7;strokeColor=#9673a6;" vertex="1" parent="1">
          <mxGeometry x="150" y="670" width="80" height="40" as="geometry" />
        </mxCell>
        <mxCell id="xgXOS_-53twv-PHmrjcY-12" value="Mock server" style="rounded=0;whiteSpace=wrap;html=1;fillColor=#e1d5e7;strokeColor=#9673a6;" vertex="1" parent="1">
          <mxGeometry x="150" y="750" width="80" height="40" as="geometry" />
        </mxCell>
        <mxCell id="xgXOS_-53twv-PHmrjcY-13" value="流量管理" style="rounded=0;whiteSpace=wrap;html=1;fillColor=#e1d5e7;strokeColor=#9673a6;" vertex="1" parent="1">
          <mxGeometry x="150" y="830" width="80" height="40" as="geometry" />
        </mxCell>
        <mxCell id="xgXOS_-53twv-PHmrjcY-14" value="监控预警" style="rounded=0;whiteSpace=wrap;html=1;fillColor=#e1d5e7;strokeColor=#9673a6;" vertex="1" parent="1">
          <mxGeometry x="150" y="930" width="80" height="40" as="geometry" />
        </mxCell>
      </root>
    </mxGraphModel>
  </diagram>
</mxfile>
